# xmcd CD database file
#
# Track frame offsets:
#	150
#	10860
#	27235
#	33037
#	47900
#	69517
#	87720
#
# Disc length: 2074 seconds
#
# Revision: 0
# Processed by: cddbd v1.5.1PL0 Copyright (c) Steve Scherf et al.
# Submitted via: CDex 1.51
#
DISCID=52081807
DTITLE=Tibetan Bells  - Henry Wolff and Nancy Hennings
DYEAR=1972
DGENRE=New Age
TTITLE0=Khumbu Ice-Fall
TTITLE1=Rainbow Light
TTITLE2=White Light
TTITLE3=From the Roof of the World you can see forever
TTITLE4=Wrathful Deity
TTITLE5=Clear Light
TTITLE6=A Choir of Bells
EXTD=YEAR: 1972
EXTT0=
EXTT1=
EXTT2=
EXTT3=
EXTT4=
EXTT5=
EXTT6=
PLAYORDER=
